<mxfile host="app.diagrams.net" agent="Mozilla/5.0 (Windows NT 10.0; Win64; x64) AppleWebKit/537.36 (KHTML, like Gecko) Chrome/141.0.0.0 Safari/537.36" version="28.2.8">
  <diagram name="Library System Use Cases" id="itqkjAy1KSHuuBwipnuC">
    <mxGraphModel dx="1042" dy="562" grid="1" gridSize="10" guides="1" tooltips="1" connect="1" arrows="1" fold="1" page="1" pageScale="1" pageWidth="827" pageHeight="1169" math="0" shadow="0">
      <root>
        <mxCell id="0" />
        <mxCell id="1" parent="0" />
        <mxCell id="Rp8qTM52RfkILUYRCbHD-1" value="Gestão de biblioteca" style="swimlane;startSize=30;" vertex="1" parent="1">
          <mxGeometry x="290" y="40" width="350" height="500" as="geometry" />
        </mxCell>
        <mxCell id="Rp8qTM52RfkILUYRCbHD-2" value="Registar aluguer" style="ellipse;whiteSpace=wrap;html=1;" vertex="1" parent="Rp8qTM52RfkILUYRCbHD-1">
          <mxGeometry x="90" y="280" width="150" height="40" as="geometry" />
        </mxCell>
        <mxCell id="Rp8qTM52RfkILUYRCbHD-3" value="Consultar empréstimos atrasados" style="ellipse;whiteSpace=wrap;html=1;" vertex="1" parent="Rp8qTM52RfkILUYRCbHD-1">
          <mxGeometry x="100" y="220" width="150" height="40" as="geometry" />
        </mxCell>
        <mxCell id="Rp8qTM52RfkILUYRCbHD-4" value="Pesquisar livros" style="ellipse;whiteSpace=wrap;html=1;" vertex="1" parent="Rp8qTM52RfkILUYRCbHD-1">
          <mxGeometry x="90" y="120" width="150" height="40" as="geometry" />
        </mxCell>
        <mxCell id="Rp8qTM52RfkILUYRCbHD-5" value="Requisitar aluger online" style="ellipse;whiteSpace=wrap;html=1;" vertex="1" parent="Rp8qTM52RfkILUYRCbHD-1">
          <mxGeometry x="100" y="40" width="150" height="40" as="geometry" />
        </mxCell>
        <mxCell id="Rp8qTM52RfkILUYRCbHD-8" value="Enviar notificação de disponibilidade" style="ellipse;whiteSpace=wrap;html=1;" vertex="1" parent="Rp8qTM52RfkILUYRCbHD-1">
          <mxGeometry x="70" y="350" width="180" height="40" as="geometry" />
        </mxCell>
        <mxCell id="Rp8qTM52RfkILUYRCbHD-6" value="Calcular multa" style="ellipse;whiteSpace=wrap;html=1;fillColor=#ffe6cc;strokeColor=#d79b00;" vertex="1" parent="Rp8qTM52RfkILUYRCbHD-1">
          <mxGeometry x="85" y="460" width="150" height="40" as="geometry" />
        </mxCell>
        <mxCell id="Rp8qTM52RfkILUYRCbHD-7" value="Enviar email com multa" style="ellipse;whiteSpace=wrap;html=1;" vertex="1" parent="Rp8qTM52RfkILUYRCbHD-1">
          <mxGeometry x="90" y="400" width="150" height="40" as="geometry" />
        </mxCell>
        <mxCell id="Rp8qTM52RfkILUYRCbHD-21" style="edgeStyle=orthogonalEdgeStyle;rounded=0;orthogonalLoop=1;jettySize=auto;html=1;exitX=1;exitY=0.3333333333333333;exitDx=0;exitDy=0;exitPerimeter=0;entryX=0;entryY=0.5;entryDx=0;entryDy=0;" edge="1" parent="1" source="Rp8qTM52RfkILUYRCbHD-14" target="Rp8qTM52RfkILUYRCbHD-3">
          <mxGeometry relative="1" as="geometry" />
        </mxCell>
        <mxCell id="Rp8qTM52RfkILUYRCbHD-22" style="edgeStyle=orthogonalEdgeStyle;rounded=0;orthogonalLoop=1;jettySize=auto;html=1;exitX=1;exitY=0.3333333333333333;exitDx=0;exitDy=0;exitPerimeter=0;entryX=0;entryY=0.5;entryDx=0;entryDy=0;" edge="1" parent="1" source="Rp8qTM52RfkILUYRCbHD-14" target="Rp8qTM52RfkILUYRCbHD-2">
          <mxGeometry relative="1" as="geometry" />
        </mxCell>
        <mxCell id="Rp8qTM52RfkILUYRCbHD-14" value="Staff" style="shape=umlActor;verticalLabelPosition=bottom;verticalAlign=top;html=1;" vertex="1" parent="1">
          <mxGeometry x="130" y="270" width="30" height="60" as="geometry" />
        </mxCell>
        <mxCell id="Rp8qTM52RfkILUYRCbHD-19" style="edgeStyle=orthogonalEdgeStyle;rounded=0;orthogonalLoop=1;jettySize=auto;html=1;exitX=1;exitY=0.3333333333333333;exitDx=0;exitDy=0;exitPerimeter=0;entryX=0;entryY=0.5;entryDx=0;entryDy=0;" edge="1" parent="1" source="Rp8qTM52RfkILUYRCbHD-17" target="Rp8qTM52RfkILUYRCbHD-5">
          <mxGeometry relative="1" as="geometry" />
        </mxCell>
        <mxCell id="Rp8qTM52RfkILUYRCbHD-20" style="edgeStyle=orthogonalEdgeStyle;rounded=0;orthogonalLoop=1;jettySize=auto;html=1;exitX=1;exitY=0.3333333333333333;exitDx=0;exitDy=0;exitPerimeter=0;entryX=0;entryY=0.5;entryDx=0;entryDy=0;" edge="1" parent="1" source="Rp8qTM52RfkILUYRCbHD-17" target="Rp8qTM52RfkILUYRCbHD-4">
          <mxGeometry relative="1" as="geometry" />
        </mxCell>
        <mxCell id="Rp8qTM52RfkILUYRCbHD-17" value="Aluno" style="shape=umlActor;verticalLabelPosition=bottom;verticalAlign=top;html=1;" vertex="1" parent="1">
          <mxGeometry x="130" y="100" width="30" height="60" as="geometry" />
        </mxCell>
        <mxCell id="Rp8qTM52RfkILUYRCbHD-23" style="edgeStyle=orthogonalEdgeStyle;rounded=0;orthogonalLoop=1;jettySize=auto;html=1;exitX=0;exitY=0.3333333333333333;exitDx=0;exitDy=0;exitPerimeter=0;entryX=1;entryY=0.5;entryDx=0;entryDy=0;" edge="1" parent="1" source="Rp8qTM52RfkILUYRCbHD-18" target="Rp8qTM52RfkILUYRCbHD-7">
          <mxGeometry relative="1" as="geometry" />
        </mxCell>
        <mxCell id="Rp8qTM52RfkILUYRCbHD-24" style="edgeStyle=orthogonalEdgeStyle;rounded=0;orthogonalLoop=1;jettySize=auto;html=1;exitX=0;exitY=0.3333333333333333;exitDx=0;exitDy=0;exitPerimeter=0;entryX=1;entryY=0.5;entryDx=0;entryDy=0;" edge="1" parent="1" source="Rp8qTM52RfkILUYRCbHD-18" target="Rp8qTM52RfkILUYRCbHD-8">
          <mxGeometry relative="1" as="geometry" />
        </mxCell>
        <mxCell id="Rp8qTM52RfkILUYRCbHD-25" style="edgeStyle=orthogonalEdgeStyle;rounded=0;orthogonalLoop=1;jettySize=auto;html=1;exitX=0;exitY=0.3333333333333333;exitDx=0;exitDy=0;exitPerimeter=0;entryX=1;entryY=0.5;entryDx=0;entryDy=0;" edge="1" parent="1" source="Rp8qTM52RfkILUYRCbHD-18" target="Rp8qTM52RfkILUYRCbHD-6">
          <mxGeometry relative="1" as="geometry" />
        </mxCell>
        <mxCell id="Rp8qTM52RfkILUYRCbHD-18" value="Sistema" style="shape=umlActor;verticalLabelPosition=bottom;verticalAlign=top;html=1;" vertex="1" parent="1">
          <mxGeometry x="720" y="200" width="30" height="60" as="geometry" />
        </mxCell>
      </root>
    </mxGraphModel>
  </diagram>
</mxfile>
